<!-- icon666.com - MILLIONS OF FREE VECTOR ICONS --><svg id="Capa_1" enable-background="new 0 0 480 480" viewBox="0 0 480 480" xmlns="http://www.w3.org/2000/svg"><g><g><path d="m64.32 239.44h-56.24l.72-231.44h266.16l26.4 48.32 98.4 183.12h-170.32" fill="#fff"/><path d="m399.76 247.441h-170.32c-4.418 0-8-3.582-8-8s3.582-8 8-8h156.939l-92.065-171.334-24.099-44.107h-253.439l-.67 215.44h48.215c4.418 0 8 3.582 8 8s-3.582 8-8 8h-56.241c-2.126 0-4.165-.847-5.666-2.353s-2.341-3.547-2.334-5.673l.72-231.44c.014-4.407 3.592-7.974 8.001-7.974h266.16c2.926 0 5.618 1.597 7.021 4.164l26.4 48.32 98.426 183.169c1.332 2.479 1.264 5.477-.181 7.892-1.445 2.416-4.053 3.896-6.867 3.896z"/></g><g><path d="m379.76 56.32h-78.4v182.24h170.64v-91.12h-92.24z" fill="#ffa931"/><path d="m472 246.56h-170.64c-4.418 0-8-3.581-8-8v-182.24c0-4.418 3.582-8 8-8h78.399c4.418 0 8 3.582 8 8v83.12h84.241c4.418 0 8 3.582 8 8v91.12c0 4.419-3.582 8-8 8zm-162.639-16h154.639v-75.12h-84.24c-4.418 0-8-3.582-8-8v-83.12h-62.399z"/></g><g><path d="m392.96 57.6h-13.28v93.6h92.32v-10.72l-37.76-60.08c-8.931-14.185-24.517-22.794-41.28-22.8z" fill="#fff"/><path d="m472 159.2h-92.32c-4.418 0-8-3.582-8-8v-93.6c0-4.418 3.582-8 8-8h13.28.003c19.628.007 37.59 9.927 48.047 26.538l37.764 60.085c.802 1.275 1.227 2.75 1.227 4.257v10.72c-.001 4.419-3.583 8-8.001 8zm-84.32-16h76.32v-.415l-36.533-58.128c-7.508-11.926-20.41-19.052-34.51-19.057h-5.277z"/></g><g><circle cx="384.4" cy="240.8" fill="#fff" r="45.92"/><path d="m384.401 294.72c-29.731 0-53.92-24.188-53.92-53.92s24.188-53.92 53.92-53.92 53.92 24.188 53.92 53.92-24.189 53.92-53.92 53.92zm0-91.84c-20.909 0-37.92 17.011-37.92 37.92s17.011 37.92 37.92 37.92 37.92-17.011 37.92-37.92-17.011-37.92-37.92-37.92z"/></g><g><circle cx="384.4" cy="240.8" fill="#fff" r="16.72"/><path d="m384.401 265.52c-13.631 0-24.721-11.089-24.721-24.72 0-13.63 11.09-24.72 24.721-24.72s24.72 11.089 24.72 24.72c-.001 13.631-11.09 24.72-24.72 24.72zm0-33.44c-4.809 0-8.721 3.912-8.721 8.72s3.912 8.72 8.721 8.72c4.808 0 8.72-3.912 8.72-8.72-.001-4.808-3.913-8.72-8.72-8.72z"/></g><g><path d="m225.2 84.56h-166.72c-4.418 0-8-3.582-8-8s3.582-8 8-8h166.72c4.418 0 8 3.582 8 8s-3.581 8-8 8z"/></g><g><path d="m225.2 51.68h-166.72c-4.418 0-8-3.582-8-8s3.582-8 8-8h166.72c4.418 0 8 3.582 8 8s-3.581 8-8 8z"/></g><g><path d="m325.04 425.2v-50.56l-27.04-28.96 27.04.48v-15.76h146.96v94.8z" fill="#fff"/><path d="m472 433.2h-146.96c-4.418 0-8-3.582-8-8v-47.406l-24.888-26.654c-2.191-2.348-2.768-5.778-1.461-8.713 1.306-2.935 4.234-4.801 7.451-4.746l18.897.336v-7.616c0-4.418 3.582-8 8-8h146.961c4.418 0 8 3.582 8 8v94.8c0 4.417-3.582 7.999-8 7.999zm-138.96-16h130.96v-78.8h-130.96v7.76c0 2.146-.862 4.203-2.394 5.707-1.53 1.504-3.556 2.345-5.749 2.292l-8.171-.146 14.161 15.166c1.383 1.481 2.152 3.433 2.152 5.46v42.561z"/></g><g><path d="m387.2 371.2h-35.92c-4.418 0-8-3.582-8-8s3.582-8 8-8h35.92c4.418 0 8 3.582 8 8s-3.582 8-8 8z"/></g><g><path d="m417.68 371.2h-9.119c-4.418 0-8-3.582-8-8s3.582-8 8-8h9.119c4.418 0 8 3.582 8 8s-3.582 8-8 8z"/></g><g><path d="m447.12 371.2h-9.2c-4.418 0-8-3.582-8-8s3.582-8 8-8h9.2c4.418 0 8 3.582 8 8s-3.582 8-8 8z"/></g><g><path d="m449.2 400.401h-97.92c-4.418 0-8-3.582-8-8s3.582-8 8-8h97.92c4.418 0 8 3.582 8 8s-3.582 8-8 8z"/></g><g><path d="m280 440.88v-112.88c0-34.639-28.081-62.72-62.72-62.72h-139.76c-34.608.044-62.64 28.112-62.64 62.72v112.8" fill="#fff"/><path d="m280 448.88c-4.418 0-8-3.582-8-8v-112.88c0-30.173-24.547-54.72-54.72-54.72h-139.76c-30.124.038-54.64 24.585-54.64 54.72v112.8c0 4.418-3.582 8-8 8s-8-3.582-8-8v-112.8c0-38.945 31.684-70.67 70.629-70.72h139.771c38.995 0 70.72 31.725 70.72 70.72v112.88c0 4.418-3.582 8-8 8z"/></g><g><path d="m146.64 131.68h1.2c28.675 0 51.92 23.245 51.92 51.92v29.92c0 28.675-23.245 51.92-51.92 51.92h-1.2c-28.675 0-51.92-23.245-51.92-51.92v-29.92c0-28.675 23.246-51.92 51.92-51.92z" fill="#fff"/><path d="m147.841 273.441h-1.2c-33.04 0-59.92-26.88-59.92-59.92v-29.921c0-33.04 26.88-59.92 59.92-59.92h1.2c33.04 0 59.92 26.88 59.92 59.92v29.92c-.001 33.041-26.88 59.921-59.92 59.921zm-1.201-133.761c-24.218 0-43.92 19.702-43.92 43.92v29.92c0 24.218 19.702 43.92 43.92 43.92h1.2c24.218 0 43.92-19.703 43.92-43.92v-29.92c0-24.218-19.702-43.92-43.92-43.92z"/></g><g><path d="m44.801 375.441h-29.92c-4.418 0-8-3.582-8-8s3.582-8 8-8h29.92c4.418 0 8 3.582 8 8s-3.583 8-8 8z"/></g><g><path d="m279.601 375.441h-29.921c-4.418 0-8-3.582-8-8s3.582-8 8-8h29.921c4.418 0 8 3.582 8 8s-3.582 8-8 8z"/></g><g><path d="m44.8 328.4h204.88v143.6h-204.88z" fill="#ffa931"/><path d="m249.68 480h-204.879c-4.418 0-8-3.582-8-8v-143.6c0-4.418 3.582-8 8-8h204.879c4.418 0 8 3.582 8 8v143.6c0 4.418-3.582 8-8 8zm-196.879-16h188.879v-127.6h-188.879z"/></g><g><path d="m44.8 303.92h204.88v47.2h-204.88z" fill="#ffa931"/><path d="m249.68 359.12h-204.879c-4.418 0-8-3.582-8-8v-47.2c0-4.418 3.582-8 8-8h204.879c4.418 0 8 3.582 8 8v47.2c0 4.418-3.582 8-8 8zm-196.879-16h188.879v-31.2h-188.879z"/></g><g><path d="m130.16 121.6h34c19.616-.177 35.662 15.582 35.839 35.199.001.107.001.214.001.321v20.56h-105.28v-20.56c0-19.586 15.855-35.476 35.44-35.52z" fill="#ffa931"/><path d="m200 185.68h-105.28c-4.418 0-8-3.582-8-8v-20.56c0-23.943 19.479-43.466 43.422-43.52h.018 34c.131-.001.265-.002.396-.002 23.746 0 43.227 19.264 43.441 43.128l.003.394v20.56c0 4.419-3.581 8-8 8zm-97.28-16h89.28l-.001-12.809c-.066-7.351-2.991-14.236-8.235-19.387-5.184-5.091-12.021-7.886-19.276-7.886-.085 0-.17 0-.255.001h-34.054c-15.141.034-27.458 12.379-27.458 27.52v12.561z"/></g><g><path d="m133.92 239.44c8.518 4.325 18.523 4.619 27.28.8" fill="#fff"/><path d="m148.401 250.922c-6.209 0-12.403-1.454-18.103-4.349-3.939-2.001-5.511-6.816-3.511-10.756 2.001-3.939 6.818-5.51 10.755-3.51 6.412 3.255 13.869 3.475 20.46.6 4.051-1.767 8.765.086 10.531 4.135 1.766 4.05-.085 8.765-4.135 10.531-5.125 2.236-10.567 3.349-15.997 3.349z"/></g><g><path d="m111.04 374.32h72.32v61.04h-72.32z" fill="#fff"/><path d="m183.361 443.36h-72.32c-4.418 0-8-3.582-8-8v-61.04c0-4.418 3.582-8 8-8h72.32c4.418 0 8 3.582 8 8v61.04c0 4.418-3.582 8-8 8zm-64.321-16h56.32v-45.04h-56.32z"/></g><g><path d="m27.68 403.76h9.84c11.204 0 20.312 9.036 20.4 20.24v14.08c0 11.267-9.133 20.4-20.4 20.4h-9.84c-10.807 0-19.592-8.714-19.68-19.52v-15.44c-.044-10.869 8.731-19.716 19.6-19.76z" fill="#fff"/><path d="m37.52 466.481h-9.84c-15.14 0-27.557-12.316-27.68-27.455v-15.506c-.062-15.229 12.305-27.696 27.567-27.76h.113 9.84c15.539 0 28.278 12.641 28.4 28.178v14.143c0 15.659-12.74 28.4-28.4 28.4zm-9.92-54.721c-6.408.026-11.626 5.287-11.6 11.728v15.473c.052 6.323 5.292 11.521 11.68 11.521h9.84c6.837 0 12.4-5.563 12.4-12.4v-14.082c-.053-6.722-5.615-12.24-12.4-12.24z"/></g><g><path d="m266.96 458.72h-9.84c-11.266.089-20.471-8.972-20.56-20.239v-.001-14.08c0-11.267 9.133-20.4 20.4-20.4h10c10.869 0 19.68 8.811 19.68 19.68v15.28c.044 10.869-8.731 19.716-19.6 19.76-.026 0-.053 0-.08 0z" fill="#fff"/><path d="m256.894 466.721c-15.494 0-28.21-12.593-28.333-28.176v-14.145c0-15.66 12.74-28.4 28.4-28.4h10c15.263 0 27.681 12.417 27.681 27.68v15.28c.03 7.361-2.821 14.324-8.028 19.573s-12.146 8.156-19.54 8.187c-.011 0-.102 0-.112 0h-9.84c-.077.001-.153.001-.228.001zm.066-54.721c-6.837 0-12.399 5.563-12.399 12.4v14.08c.053 6.741 5.605 12.239 12.397 12.24.033 0 .065-.001.099-.001h9.983c3.088-.013 6.016-1.239 8.213-3.454s3.4-5.153 3.388-8.273v-15.312c0-6.44-5.24-11.68-11.681-11.68z"/></g><g><path d="m200 168.72-5.44 11.44c-4.413 9.189-12.94 15.725-22.96 17.6l-6.4 1.28c-11.715 2.159-23.725 2.159-35.44 0l-6.4-1.28c-9.99-1.898-18.483-8.431-22.88-17.6l-5.44-11.44 10.56-2.72c27.456-7.199 56.304-7.199 83.76 0z" fill="#ffa931"/><path d="m147.48 208.666c-6.405 0-12.81-.586-19.17-1.758-.04-.007-.08-.015-.119-.023l-6.4-1.28c-12.358-2.348-23.05-10.572-28.524-21.985l-5.451-11.464c-1.026-2.157-1.034-4.66-.022-6.824s2.938-3.763 5.251-4.358l10.56-2.72c28.692-7.523 59.06-7.524 87.785.009l10.592 2.708c2.317.592 4.248 2.19 5.262 4.355 1.015 2.166 1.008 4.671-.019 6.831l-5.44 11.44c-5.5 11.454-16.207 19.67-28.66 22.018l-6.355 1.271c-.04.008-.08.016-.119.023-6.361 1.171-12.766 1.757-19.171 1.757zm-16.213-17.483c10.759 1.977 21.668 1.976 32.426 0l6.337-1.268c.033-.006.065-.013.098-.019 7.485-1.4 13.923-6.334 17.22-13.199l1.252-2.634-1.222-.313c-26.119-6.848-53.68-6.848-79.75-.012l-1.198.309 1.273 2.678c3.273 6.824 9.688 11.758 17.149 13.176z"/></g><g><path d="m211.281 219.04h-19.281v-54.08h19.2.138c10.379 0 18.906 8.451 18.981 18.903v16.138c.002 10.498-8.54 19.039-19.038 19.039zm-3.281-16h3.28c1.676 0 3.04-1.364 3.04-3.04v-16c-.012-1.691-1.374-3.041-3.041-3.041-.007 0-.015 0-.022 0h-3.258v22.081z"/></g><g><path d="m83.382 219.041c-10.378 0-18.905-8.45-18.981-18.902v-16.139c0-10.499 8.541-19.04 19.04-19.04h19.2v46.08h-7.92v8h-11.2c-.047.001-.093.001-.139.001zm11.338-.001h.01zm-11.28-38.08c-1.676 0-3.04 1.364-3.04 3.04v16c.012 1.691 1.374 3.041 3.04 3.041h.022 3.178v-22.08h-3.2z"/></g></g></svg>